<?xml version="1.0" standalone="no"?>
<!DOCTYPE svg PUBLIC "-//W3C//DTD SVG 20010904//EN"
 "http://www.w3.org/TR/2001/REC-SVG-20010904/DTD/svg10.dtd">
<svg version="1.0" xmlns="http://www.w3.org/2000/svg"
 width="512.000000pt" height="512.000000pt" viewBox="0 0 512.000000 512.000000"
 preserveAspectRatio="xMidYMid meet">
<metadata>
Created by potrace 1.14, written by Peter Selinger 2001-2017
</metadata>
<g transform="translate(0.000000,512.000000) scale(0.100000,-0.100000)"
fill="#000000" stroke="none">
<path d="M2425 4622 c-176 -20 -366 -113 -495 -243 -163 -163 -243 -360 -242
-594 0 -150 22 -242 92 -380 167 -335 532 -511 915 -440 166 31 353 143 468
280 213 254 259 595 121 893 -115 250 -358 436 -624 478 -50 8 -189 11 -235 6z"/>
<path d="M1970 2942 c-37 -5 -176 -40 -250 -64 -224 -72 -546 -240 -619 -323
-41 -47 -66 -98 -85 -171 -12 -47 -67 -348 -81 -439 -1 -11 -15 -87 -29 -170
-35 -197 -45 -252 -53 -300 -18 -101 3 -192 53 -236 23 -20 351 -238 368 -245
10 -4 12 117 12 584 l0 589 28 56 c15 32 42 68 60 82 71 54 30 52 1145 52 686
0 1047 -3 1075 -10 54 -14 137 -96 154 -152 8 -29 11 -200 12 -604 0 -311 2
-567 5 -569 4 -4 243 143 356 219 85 57 93 86 64 250 -2 13 -9 53 -15 89 -5
36 -12 75 -14 86 -2 12 -7 39 -10 60 -10 67 -18 118 -22 139 -5 24 -25 142
-29 170 -2 11 -6 36 -10 55 -3 19 -8 46 -10 60 -34 246 -73 348 -161 429 -79
73 -293 192 -449 250 -33 13 -69 27 -80 31 -34 14 -147 48 -205 61 -30 6 -68
15 -85 19 -24 5 -46 -2 -111 -36 -91 -48 -218 -89 -314 -103 -219 -30 -466 17
-640 123 -19 12 -46 20 -60 18z"/>
<path d="M1524 2252 c-49 -7 -65 -14 -89 -38 -15 -15 -30 -36 -34 -48 -5 -11
-9 -309 -9 -661 -1 -352 -1 -652 -1 -667 l-1 -27 -87 0 c-49 0 -139 0 -200 0
l-113 -1 0 -47 c0 -57 26 -105 72 -133 31 -19 64 -19 1456 -19 1183 -1 1429 2
1456 13 49 20 77 66 81 131 l4 55 -62 0 c-34 1 -125 2 -202 3 l-139 2 -1 670
c-1 737 1 707 -63 747 l-35 22 -1007 0 c-554 1 -1015 0 -1026 -2z m1124 -499
c31 -12 42 -21 39 -32 -7 -22 -236 -573 -240 -577 -2 -3 -24 5 -50 16 l-45 20
48 118 c67 165 169 412 183 445 14 32 10 31 65 10z m-428 -28 l33 -34 -110
-110 -110 -109 109 -111 110 -110 -37 -38 -36 -37 -144 144 c-80 80 -144 148
-142 153 3 11 279 287 287 287 3 0 21 -16 40 -35z m799 -109 l144 -145 -147
-147 -147 -148 -37 37 -37 37 110 110 110 110 -110 110 -109 109 24 28 c26 29
42 43 50 43 3 0 70 -65 149 -144z"/>
</g>
</svg>
